<?xml version="1.0" encoding="utf-8"?>
<svg version="1.1" id="Layer_1" xmlns="http://www.w3.org/2000/svg" xmlns:xlink="http://www.w3.org/1999/xlink" x="0px" y="0px"
	 viewBox="0 0 100 100" style="enable-background:new 0 0 100 100;" xml:space="preserve">
<style type="text/css">
	.st0{fill:#FFFFFF;}
</style>
<path class="st0" d="M50,0C22.39,0,0,22.39,0,50s22.39,50,50,50c27.61,0,50-22.39,50-50S77.61,0,50,0z M50,94.02
	c-16.3,0-30.5-8.88-38.11-22.05c4-2.15,9.64-4.05,15.27-6.39c3.68-1.42,7.27-3.04,10.75-4.88l0.08-8.34
	c-2.64-2.81-4.16-6.49-4.27-10.34c-2.05,0.58-4.18-3.04-4.29-4.96c-0.11-1.83,0.29-6.94,2.76-6.43c-0.5-3.02-0.73-6.07-0.7-9.13
	c1.56-6.57,6.69-11.7,13.26-13.26c9.6-2.28,19.23,3.66,21.5,13.26c0.03,3.06-0.2,6.12-0.7,9.13c2.48-0.52,2.88,4.59,2.76,6.43
	c-0.12,1.92-2.27,5.52-4.29,4.96c-0.1,3.86-1.61,7.54-4.26,10.34l0.08,8.34c3.48,1.84,7.07,3.47,10.74,4.88
	c6.46,2.69,12.95,4.78,16.94,7.35C79.79,85.56,65.9,94.02,50,94.02z"/>
</svg>
