<svg id="Layer_1" data-name="Layer 1" xmlns="http://www.w3.org/2000/svg" xmlns:xlink="http://www.w3.org/1999/xlink" viewBox="0 0 500 200">
  <defs>
    <style>
      .cls-1 {
        isolation: isolate;
      }

      .cls-2 {
        fill: #010101;
      }
    </style>
    <symbol id="menu" data-name="menu" viewBox="0 0 100 70.06">
      <rect y="58.38" width="100" height="11.68"/>
      <rect y="29.19" width="100" height="11.68"/>
      <rect width="100" height="11.68"/>
    </symbol>
    <symbol id="close" data-name="close" viewBox="0 0 100 100">
      <path d="M50,0a50,50,0,1,0,50,50A50,50,0,0,0,50,0ZM69.26,75.69,50,56.43,30.74,75.69l-6.43-6.43L43.57,50,24.31,30.74l6.43-6.43L50,43.57,69.26,24.31l6.43,6.43L56.43,50,75.69,69.26Z"/>
    </symbol>
    <symbol id="next" data-name="next" viewBox="0 0 57.2 100">
      <g id="_" data-name=" " class="cls-1">
        <g class="cls-1">
          <path d="M38.06,49.92.89,11.19a2.22,2.22,0,0,1,0-3.56L7.57,1q2-1.78,3.56-.22L56.54,48.14a2.73,2.73,0,0,1,0,3.56L11.13,99.11a2.22,2.22,0,0,1-3.56,0L.89,92.21a2.22,2.22,0,0,1,0-3.56Z"/>
        </g>
      </g>
    </symbol>
    <symbol id="previous" data-name="previous" viewBox="0 0 57.2 100">
      <g id="_2" data-name=" " class="cls-1">
        <g class="cls-1">
          <path d="M56.31,88.65a2.22,2.22,0,0,1,0,3.56l-6.67,6.9a2.22,2.22,0,0,1-3.56,0L.67,51.7a2.7,2.7,0,0,1,0-3.56L46.08.73c1-1,2.22-1,3.56.22l6.67,6.68a2.22,2.22,0,0,1,0,3.56L19.14,49.92Z"/>
        </g>
      </g>
    </symbol>
    <symbol id="avatar" data-name="avatar" viewBox="0 0 100 100">
      <path d="M50,0a50,50,0,1,0,50,50A50,50,0,0,0,50,0Zm0,94A44,44,0,0,1,11.89,72c4-2.15,9.64-4,15.27-6.39A100,100,0,0,0,37.91,60.7L38,52.36A15.76,15.76,0,0,1,33.72,42c-2,.58-4.18-3-4.29-5s.29-6.94,2.76-6.43a52.68,52.68,0,0,1-.7-9.13,17.86,17.86,0,0,1,34.76,0,52.61,52.61,0,0,1-.7,9.13c2.48-.52,2.88,4.59,2.76,6.43S66,42.58,64,42a15.61,15.61,0,0,1-4.26,10.34l.08,8.34a98.77,98.77,0,0,0,10.74,4.88c6.46,2.69,13,4.78,16.94,7.35A43.94,43.94,0,0,1,50,94Z"/>
    </symbol>
    <symbol id="warning" data-name="warning" viewBox="0 0 100 88.5">
      <path d="M97.79,65.08,63.26,7.51a15.47,15.47,0,0,0-26.52,0L2.2,65.09A15.46,15.46,0,0,0,15.46,88.5H84.53A15.46,15.46,0,0,0,97.79,65.08ZM46.87,21.51A3.42,3.42,0,0,1,50,20.14a3.37,3.37,0,0,1,3,1.33A6.16,6.16,0,0,1,53.94,25l-.73,32a3.58,3.58,0,0,1-.84,2.37,2.91,2.91,0,0,1-2.37,1,2.73,2.73,0,0,1-2.25-1,3.65,3.65,0,0,1-.8-2.37l-.89-32.06A5.66,5.66,0,0,1,46.87,21.51Zm6.59,53.63A5,5,0,0,1,50,76.38a4.91,4.91,0,0,1-3.5-1.24,5.45,5.45,0,0,1,0-7.11A4.81,4.81,0,0,1,50,66.74,4.86,4.86,0,0,1,53.46,68a5.33,5.33,0,0,1,0,7.11Z"/>
    </symbol>
    <symbol id="asterix" data-name="asterix" viewBox="0 0 98.9 100">
      <g id="_3" data-name=" " class="cls-1">
        <g class="cls-1">
          <path d="M35.2,55.8,0,45.65,6.35,26.17,41.2,39.66,39.47,0H60.13L58.4,40.35,92.67,27.09,98.9,46.92,63.13,57.07l23.08,30.7L69.47,100,48.7,66.76,28.16,99,11.31,87.19Z"/>
        </g>
      </g>
    </symbol>
    <symbol id="logout" data-name="logout" viewBox="0 0 78.01 100">
      <path class="cls-2" d="M17.2,6.08a1.74,1.74,0,0,0,.63.32C21.5,7.87,25.28,9.34,29,10.91c2.73,1.15,5.56,2.1,8.18,3.36a3.82,3.82,0,0,1,2.21,3.67V79.41c.31,0,.63.1.84.1H51.61c.84,0,1-.31,1-1.15V57.17h5.45c0,.32.11.53.11.84V82.35a2.72,2.72,0,0,1-3,3H39.34V96.93a4.08,4.08,0,0,1-.11,1.15C39,99.76,38,100.39,36.4,99.76c-2.83-1.05-5.56-2.2-8.29-3.36L19,92.63a67.31,67.31,0,0,1-7.14-2.73c-2.72-1.15-5.45-2.2-8.18-3.36a25.57,25.57,0,0,1-2.52-1.15A2.11,2.11,0,0,1,0,83.29V4.09C0,.21.63,0,4.09,0H55c2.41,0,3.35.94,3.35,3.36V28.22H52.87V7.13c0-.73-.1-1.15-1-1.15H18.36A3.8,3.8,0,0,1,17.2,6.08Z"/>
      <path class="cls-2" d="M62.21,35.25V29.58a2,2,0,0,1,2.3-2.2,2.74,2.74,0,0,1,1.26.63c2.63,2.73,5.14,5.56,7.77,8.29,1.15,1.25,2.2,2.41,3.35,3.56A3.28,3.28,0,0,1,77,44.69c-3,3.14-6,6.4-9,9.54-.74.84-1.47,1.68-2.21,2.42a2,2,0,0,1-2.31.52,2,2,0,0,1-1.25-2V49.51H48.67c-1.57,0-2.09-.52-2.09-2.09V37c0-1.47.52-2,2-2H60.11A6.47,6.47,0,0,0,62.21,35.25Z"/>
    </symbol>
    <symbol id="tick" data-name="tick" viewBox="0 0 100 100">
      <path class="cls-2" d="M50,0a50,50,0,1,0,50,50A50,50,0,0,0,50,0ZM39,75.69l0,0,0,0L19.42,56.16l6.43-6.43L39,62.86,77.52,24.31,84,30.74Z"/>
    </symbol>
    <symbol id="home" data-name="home" viewBox="0 0 100 90.22">
      <polygon class="cls-2" points="81.15 28.11 81.15 7.21 67.89 7.21 67.89 16.14 50 0 0 45.11 18.75 45.11 18.75 90.22 43.75 90.22 43.75 67.67 56.25 67.67 56.25 90.22 81.25 90.22 81.25 45.11 100 45.11 81.15 28.11"/>
    </symbol>
  </defs>
  <use width="100" height="70.05" transform="translate(0 14.97)" xlink:href="#menu"/>
  <use width="100" height="100" transform="translate(100 0)" xlink:href="#close"/>
  <use width="57.2" height="100" transform="translate(321.4 0)" xlink:href="#next"/>
  <use width="57.2" height="100" transform="translate(222.05 0.32)" xlink:href="#previous"/>
  <use width="100" height="100" transform="translate(400 0)" xlink:href="#avatar"/>
  <use width="100" height="88.5" transform="translate(0 105.75)" xlink:href="#warning"/>
  <use width="98.9" height="100" transform="translate(100.55 100)" xlink:href="#asterix"/>
  <use width="78.01" height="100" transform="translate(211 100)" xlink:href="#logout"/>
  <use width="100" height="100" transform="translate(300 100)" xlink:href="#tick"/>
  <use width="100" height="90.22" transform="translate(400 104.89)" xlink:href="#home"/>
</svg>
