<svg id="Layer_1" data-name="Layer 1" xmlns="http://www.w3.org/2000/svg" xmlns:xlink="http://www.w3.org/1999/xlink" viewBox="0 0 500 200">
  <defs>
    <style>
      .cls-1 {
        isolation: isolate;
      }
    </style>
    <symbol id="menu" data-name="menu" viewBox="0 0 100 70.06">
      <rect y="58.38" width="100" height="11.68"/>
      <rect y="29.19" width="100" height="11.68"/>
      <rect width="100" height="11.68"/>
    </symbol>
    <symbol id="close" data-name="close" viewBox="0 0 100 100">
      <path d="M50,0a50,50,0,1,0,50,50A50,50,0,0,0,50,0ZM69.26,75.69,50,56.43,30.74,75.69l-6.43-6.43L43.57,50,24.31,30.74l6.43-6.43L50,43.57,69.26,24.31l6.43,6.43L56.43,50,75.69,69.26Z"/>
    </symbol>
    <symbol id="next" data-name="next" viewBox="0 0 57.2 100">
      <g id="_" data-name=" " class="cls-1">
        <g class="cls-1">
          <path d="M38.06,49.92.89,11.19a2.22,2.22,0,0,1,0-3.56L7.57,1q2-1.78,3.56-.22L56.54,48.14a2.73,2.73,0,0,1,0,3.56L11.13,99.11a2.22,2.22,0,0,1-3.56,0L.89,92.21a2.22,2.22,0,0,1,0-3.56Z"/>
        </g>
      </g>
    </symbol>
    <symbol id="previous" data-name="previous" viewBox="0 0 57.2 100">
      <g id="_2" data-name=" " class="cls-1">
        <g class="cls-1">
          <path d="M56.31,88.65a2.22,2.22,0,0,1,0,3.56l-6.67,6.9a2.22,2.22,0,0,1-3.56,0L.67,51.7a2.7,2.7,0,0,1,0-3.56L46.08.73c1-1,2.22-1,3.56.22l6.67,6.68a2.22,2.22,0,0,1,0,3.56L19.14,49.92Z"/>
        </g>
      </g>
    </symbol>
    <symbol id="avatar" data-name="avatar" viewBox="0 0 100 100">
      <path d="M50,0a50,50,0,1,0,50,50A50,50,0,0,0,50,0Zm0,94A44,44,0,0,1,11.89,72c4-2.15,9.64-4,15.27-6.39A100,100,0,0,0,37.91,60.7L38,52.36A15.76,15.76,0,0,1,33.72,42c-2,.58-4.18-3-4.29-5s.29-6.94,2.76-6.43a52.68,52.68,0,0,1-.7-9.13,17.86,17.86,0,0,1,34.76,0,52.61,52.61,0,0,1-.7,9.13c2.48-.52,2.88,4.59,2.76,6.43S66,42.58,64,42a15.61,15.61,0,0,1-4.26,10.34l.08,8.34a98.77,98.77,0,0,0,10.74,4.88c6.46,2.69,13,4.78,16.94,7.35A43.94,43.94,0,0,1,50,94Z"/>
    </symbol>
    <symbol id="warning" data-name="warning" viewBox="0 0 100 88.5">
      <path d="M97.79,65.08,63.26,7.51a15.47,15.47,0,0,0-26.52,0L2.2,65.09A15.46,15.46,0,0,0,15.46,88.5H84.53A15.46,15.46,0,0,0,97.79,65.08ZM46.87,21.51A3.42,3.42,0,0,1,50,20.14a3.37,3.37,0,0,1,3,1.33A6.16,6.16,0,0,1,53.94,25l-.73,32a3.58,3.58,0,0,1-.84,2.37,2.91,2.91,0,0,1-2.37,1,2.73,2.73,0,0,1-2.25-1,3.65,3.65,0,0,1-.8-2.37l-.89-32.06A5.66,5.66,0,0,1,46.87,21.51Zm6.59,53.63A5,5,0,0,1,50,76.38a4.91,4.91,0,0,1-3.5-1.24,5.45,5.45,0,0,1,0-7.11A4.81,4.81,0,0,1,50,66.74,4.86,4.86,0,0,1,53.46,68a5.33,5.33,0,0,1,0,7.11Z"/>
    </symbol>
    <symbol id="asterix" data-name="asterix" viewBox="0 0 98.9 100">
      <g id="_3" data-name=" " class="cls-1">
        <g class="cls-1">
          <path d="M35.2,55.8,0,45.65,6.35,26.17,41.2,39.66,39.47,0H60.13L58.4,40.35,92.67,27.09,98.9,46.92,63.13,57.07l23.08,30.7L69.47,100,48.7,66.76,28.16,99,11.31,87.19Z"/>
        </g>
      </g>
    </symbol>
  </defs>
  <use width="100" height="70.05" transform="translate(0 14.97)" xlink:href="#menu"/>
  <use width="100" height="100" transform="translate(100 0)" xlink:href="#close"/>
  <use width="57.2" height="100" transform="translate(321.4 0)" xlink:href="#next"/>
  <use width="57.2" height="100" transform="translate(222.05 0.32)" xlink:href="#previous"/>
  <use width="100" height="100" transform="translate(400 0)" xlink:href="#avatar"/>
  <use width="100" height="88.5" transform="translate(0 105.75)" xlink:href="#warning"/>
  <use width="98.9" height="100" transform="translate(100.55 100)" xlink:href="#asterix"/>
</svg>
