<?xml version="1.0" encoding="utf-8"?>

<svg version="1.1" id="Layer_1" xmlns="http://www.w3.org/2000/svg" xmlns:xlink="http://www.w3.org/1999/xlink" x="0px" y="0px"
	 viewBox="0 0 500 200" style="enable-background:new 0 0 500 200;" xml:space="preserve">
	 
<symbol  id="close" viewBox="-50 -50 100 100">
  <title>Close icon for modals</title> 
  <desc></desc>
	<g id="close_1_">
		<path class="icon" d="M0,40c-22.1,0-40-17.9-40-40s17.9-40,40-40S40-22.1,40,0C40,22.1,22.1,40,0,40z M15.4-20.6L0-5.1l-15.4-15.4
			l-5.1,5.1L-5.1,0l-15.4,15.4l5.1,5.1L0,5.1l15.4,15.4l5.1-5.1L5.1,0l15.4-15.4L15.4-20.6z"/>
	</g>
	<rect x="-50" y="-50" class="bounding-box" width="100" height="100"/>
</symbol>

<symbol  id="menu" viewBox="-50 -50 100 100">
  <title>Menu open button</title> 
  <desc></desc>

	<rect x="-35.7" y="-25" width="71.3" height="8.3"/>
	<rect x="-35.7" y="-4.2" width="71.3" height="8.3"/>
	<rect x="-35.7" y="16.7" width="71.3" height="8.3"/>

</symbol>

<use xlink:href="#menu"  width="100" height="100" x="-50" y="-50" transform="matrix(1 0 0 -1 50 50)" style="overflow:visible;"/>
<use xlink:href="#close"  width="100" height="100" x="-50" y="-50" transform="matrix(1 0 0 -1 150 50)" style="overflow:visible;"/>

</svg>
